<?xml version="1.0" standalone="no"?><!DOCTYPE svg PUBLIC "-//W3C//DTD SVG 1.1//EN" "http://www.w3.org/Graphics/SVG/1.1/DTD/svg11.dtd"><svg t="1565548080541" class="icon" viewBox="0 0 1024 1024" version="1.1" xmlns="http://www.w3.org/2000/svg" p-id="2729" width="64" height="64" xmlns:xlink="http://www.w3.org/1999/xlink"><defs><style type="text/css"></style></defs><path d="M956 398.5q-8-23.5-26.5-39T887 340l-205-31-92-195q-11-24-33-37-21-13-45-13t-45 13q-22 13-33 37l-92 195-205 31q-24 4-42.5 19.5t-26.5 39-2.5 47T88 487l151 154-36 218q-6 40 20 70.5t66 30.5q22 0 42-11l181-100 181 100q20 11 42 11 40 0 66-30.5t20-70.5l-36-218 151-154q17-18 22.5-41.5t-2.5-47z" fill="#ffe426" p-id="2730"></path></svg>